:SAMPLES-PER-SECOND 30
:FULLY-SPECIFIED
:DEGREES
201
root  39.3801 36.2276 -16.4311 32.5432 87.0602 -3.08803
RightUpLeg  -70.9821 -9.53352 12.512
RightLeg  39.2818 -2.09376 -2.11877
RightFoot  -1.02059 0.790947 -8.80721
RightToes  0.000482159 0.542163 -0.142577
Spine  71.3925 -6.36491 7.18888
Spine1  -1.19632 0.0296863 -8.86102
HEad  -36.788 -2.26643 -6.27696
LeftShoulder1  8.5619 -25.7769 -22.7622
LeftArm  -76.0651 -71.6635 27.9996
LeftForeArm  -8.2744 -11.2725 -3.51724
LeftHand  -0.25398 0.0180481 5.50724
RightShoulder  4.64871 19.0854 13.598
RightArm  -65.8013 45.8653 -26.16
RightForeArm  -19.3957 4.23141 1.31788
RightHand  2.1438 10.8112 14.6629
LeftUpLeg  -72.3454 14.1018 -21.6228
LeftLeg  34.2444 -2.0824 -1.16535
LeftFoot  1.13308 -1.39852 12.6542
LeftToes  1.06248e-005 4.65854e-005 -8.185e-006
202
root  39.862 36.1348 -16.3289 39.0042 86.3718 1.93922
RightUpLeg  -72.4526 -8.81998 12.0558
RightLeg  40.6577 -2.23921 -2.35102
RightFoot  -1.73218 0.747677 -9.00365
RightToes  0.000482159 0.542163 -0.142577
Spine  72.4623 -6.18855 6.5484
Spine1  -2.03545 -0.226316 -9.2799
HEad  -36.7968 -2.11702 -6.00814
LeftShoulder1  8.08859 -25.6476 -21.1852
LeftArm  -80.1937 -71.0328 31.5653
LeftForeArm  -8.56957 -12.2418 -3.12737
LeftHand  -0.25398 0.0180481 5.50724
RightShoulder  4.39817 19.0862 12.3767
RightArm  -68.4309 45.2815 -28.2015
RightForeArm  -17.2592 4.32161 0.620795
RightHand  2.28992 11.5473 14.9757
LeftUpLeg  -73.4289 12.9769 -20.6867
LeftLeg  35.4671 -0.533208 -0.0456278
LeftFoot  -0.335726 -1.08681 11.2744
LeftToes  1.06248e-005 4.65854e-005 -8.185e-006
203
root  40.3125 36.0609 -16.2628 39.7466 85.8255 1.34507
RightUpLeg  -73.7089 -8.13452 11.8139
RightLeg  41.8563 -2.3434 -2.54738
RightFoot  -2.35021 0.665878 -8.64446
RightToes  0.000482159 0.542163 -0.142577
Spine  72.9799 -6.24995 6.37181
Spine1  -2.04484 -0.324051 -9.98455
HEad  -37.1471 -2.34049 -6.03589
LeftShoulder1  7.6236 -25.3134 -19.8185
LeftArm  -84.2326 -70.4919 34.1525
LeftForeArm  -8.1361 -13.6493 -2.74352
LeftHand  -0.25398 0.0180481 5.50724
RightShoulder  4.12409 19.0196 11.0945
RightArm  -70.8083 44.7211 -29.9784
RightForeArm  -14.9277 4.37206 -0.0460197
RightHand  2.35334 11.9912 14.9898
LeftUpLeg  -74.2084 12.02 -19.8548
LeftLeg  36.2154 1.11996 1.24885
LeftFoot  -1.75238 -0.942351 11.3349
LeftToes  1.06248e-005 4.65854e-005 -8.185e-006
204
root  40.7223 36.0164 -16.1835 39.5049 85.4409 -0.246259
RightUpLeg  -74.7455 -7.49649 11.8195
RightLeg  42.6119 -2.5146 -2.78068
RightFoot  -3.06945 0.584336 -8.34761
RightToes  0.000482159 0.542163 -0.142577
Spine  73.2398 -6.20071 6.22022
Spine1  -1.96221 -0.328533 -10.4138
HEad  -37.2732 -2.32723 -5.79487
LeftShoulder1  7.20853 -24.8429 -18.7328
LeftArm  -87.5861 -70.083 35.2896
LeftForeArm  -7.14967 -15.1147 -2.50483
LeftHand  -0.25398 0.0180481 5.50724
RightShoulder  3.79489 18.649 9.78944
RightArm  -73.099 44.6915 -31.0711
RightForeArm  -13.0448 4.69418 -0.570289
RightHand  2.20585 11.1591 14.7613
LeftUpLeg  -75.2589 11.4164 -19.3309
LeftLeg  37.1412 2.30786 2.24507
LeftFoot  -2.69176 -0.862358 11.5639
LeftToes  1.06248e-005 4.65854e-005 -8.185e-006
205
root  41.0828 36.0301 -16.0666 43.2431 85.4177 2.64493
RightUpLeg  -75.2996 -7.60941 12.0756
RightLeg  43.0788 -2.53869 -2.84876
RightFoot  -3.62356 0.542156 -8.37833
RightToes  0.000482159 0.542163 -0.142577
Spine  73.7666 -6.20442 5.99277
Spine1  -2.05277 -0.517754 -10.3803
HEad  -37.0857 -2.02138 -4.96748
LeftShoulder1  6.87014 -24.4043 -17.8682
LeftArm  -90.3121 -69.8086 36.0581
LeftForeArm  -5.73955 -16.2125 -2.46447
LeftHand  -0.25398 0.0180481 5.50724
RightShoulder  3.49014 18.1112 8.70152
RightArm  -74.982 44.9044 -31.6163
RightForeArm  -12.1877 5.3872 -0.844479
RightHand  1.90238 9.63641 14.0404
LeftUpLeg  -76.0195 11.059 -19.0256
LeftLeg  38.1571 2.46433 2.44894
LeftFoot  -2.82858 -0.73912 10.1459
LeftToes  1.06248e-005 4.65854e-005 -8.185e-006
206
root  41.394 36.082 -15.9351 50.0697 85.4828 8.86854
RightUpLeg  -75.75 -8.17626 12.396
RightLeg  43.4441 -2.38187 -2.72536
RightFoot  -3.81459 0.529792 -8.42298
RightToes  0.000482159 0.542163 -0.142577
Spine  74.2262 -6.28489 5.68224
Spine1  -1.98483 -0.78421 -10.3105
HEad  -36.9553 -1.82444 -4.07955
LeftShoulder1  6.57169 -23.9598 -17.1347
LeftArm  -93.0753 -69.5574 37.4846
LeftForeArm  -3.88105 -17.0677 -2.53807
LeftHand  -0.25398 0.0180481 5.50724
RightShoulder  3.26198 17.6771 7.87207
RightArm  -76.1117 44.8864 -31.9671
RightForeArm  -11.9407 6.19357 -0.911464
RightHand  1.62885 8.69895 12.8219
LeftUpLeg  -76.4634 10.8757 -19.131
LeftLeg  38.7927 2.06167 2.15477
LeftFoot  -2.41715 -0.642394 8.40006
LeftToes  1.06248e-005 4.65854e-005 -8.185e-006
207
root  41.667 36.1391 -15.8132 54.998 85.4959 13.0782
RightUpLeg  -76.1865 -8.45555 12.6248
RightLeg  43.5742 -2.30861 -2.66235
RightFoot  -3.97971 0.508379 -8.29768
RightToes  0.000482159 0.542163 -0.142577
Spine  74.2999 -6.28287 5.39961
Spine1  -1.6471 -0.89629 -10.2932
HEad  -36.9596 -1.84957 -3.78079
LeftShoulder1  6.34705 -23.5163 -16.6701
LeftArm  -96.2743 -69.1207 39.2351
LeftForeArm  -1.84761 -17.9239 -2.64989
LeftHand  -0.25398 0.0180481 5.50724
RightShoulder  3.05211 17.3108 7.04912
RightArm  -76.5943 44.8529 -32.1428
RightForeArm  -11.6531 6.82706 -0.864557
RightHand  1.4139 8.45003 11.2879
LeftUpLeg  -76.81 10.9152 -19.5665
LeftLeg  38.9073 1.683 1.83563
LeftFoot  -2.16605 -0.644884 8.18495
LeftToes  1.06248e-005 4.65854e-005 -8.185e-006
208
root  41.9107 36.1917 -15.696 56.6083 85.6276 14.0473
RightUpLeg  -76.243 -8.36438 12.7657
RightLeg  43.3519 -2.44641 -2.78122
RightFoot  -4.43113 0.461759 -8.12242
RightToes  0.000482159 0.542163 -0.142577
Spine  74.1948 -6.1704 5.22205
Spine1  -1.18985 -0.895272 -10.0972
HEad  -36.8739 -1.84576 -3.94779
LeftShoulder1  6.17774 -23.1138 -16.3695
LeftArm  -99.4664 -68.4657 40.5304
LeftForeArm  -0.27628 -18.6574 -2.73732
LeftHand  -0.25398 0.0180481 5.50724
RightShoulder  2.78697 16.8419 5.96646
RightArm  -76.8859 45.2905 -31.825
RightForeArm  -11.4976 7.18211 -0.807818
RightHand  1.14033 8.24745 9.16635
LeftUpLeg  -76.9434 11.1842 -19.9455
LeftLeg  38.6557 1.23854 1.44115
LeftFoot  -2.43827 -0.671608 8.79795
LeftToes  1.06248e-005 4.65854e-005 -8.185e-006
